<svg xmlns="http://www.w3.org/2000/svg" version="1.1" xmlns:xlink="http://www.w3.org/1999/xlink" xmlns:svgjs="http://svgjs.dev/svgjs" width="2000" height="1247" viewBox="0 0 2000 1247"><g transform="matrix(1,0,0,1,-1.2121212121212466,0.504858299595071)"><svg viewBox="0 0 396 247" data-background-color="#ffffff" preserveAspectRatio="xMidYMid meet" height="1247" width="2000" xmlns="http://www.w3.org/2000/svg" xmlns:xlink="http://www.w3.org/1999/xlink"><g id="tight-bounds" transform="matrix(1,0,0,1,0.2400000000000091,-0.09999999999999432)"><svg viewBox="0 0 395.52 247.2" height="247.2" width="395.52"><g><svg></svg></g><g><svg viewBox="0 0 395.52 247.2" height="247.2" width="395.52"><g transform="matrix(1,0,0,1,75.54432,54.157070007930216)"><svg viewBox="0 0 244.43135999999998 138.88585998413956" height="138.88585998413956" width="244.43135999999998"><g><svg viewBox="0 0 244.43135999999998 138.88585998413956" height="138.88585998413956" width="244.43135999999998"><g><svg viewBox="0 0 244.43135999999998 138.88585998413956" height="138.88585998413956" width="244.43135999999998"><g><svg viewBox="0 0 244.43135999999998 138.88585998413956" height="138.88585998413956" width="244.43135999999998"><g id="textblocktransform"><svg viewBox="0 0 244.43135999999998 138.88585998413956" height="138.88585998413956" width="244.43135999999998" id="textblock"><g><svg viewBox="0 0 244.43135999999998 138.88585998413956" height="138.88585998413956" width="244.43135999999998"><g transform="matrix(1,0,0,1,0,0)"><svg width="244.43135999999998" viewBox="4.35 -35.83 63.050000000000004 35.83" height="138.88585998413956" data-palette-color="#000000"><path d="M33.4-35.83L33.4 0 28.53 0 28.53-16.3 9.22-16.3 9.22 0 4.35 0 4.35-35.83 9.22-35.83 9.22-19.85 28.53-19.85 28.53-35.83 33.4-35.83ZM54.82 0L42.15 0 42.15-35.83 53.57-35.83Q56.87-35.83 59.26-35.18 61.65-34.52 63.19-33.33 64.72-32.13 65.46-30.39 66.2-28.65 66.2-26.48L66.2-26.48Q66.2-25.15 65.79-23.93 65.37-22.7 64.54-21.65 63.7-20.6 62.44-19.78 61.17-18.95 59.47-18.43L59.47-18.43Q63.4-17.65 65.4-15.6 67.4-13.55 67.4-10.2L67.4-10.2Q67.4-7.93 66.56-6.05 65.72-4.17 64.11-2.83 62.5-1.48 60.16-0.74 57.82 0 54.82 0L54.82 0ZM54.72-16.32L47-16.32 47-3.85 54.75-3.85Q56.82-3.85 58.31-4.33 59.8-4.8 60.76-5.66 61.72-6.53 62.17-7.71 62.62-8.9 62.62-10.33L62.62-10.33Q62.62-13.1 60.66-14.71 58.7-16.32 54.72-16.32L54.72-16.32ZM47-32L47-19.78 53.4-19.78Q55.45-19.78 56.95-20.23 58.45-20.68 59.44-21.48 60.42-22.28 60.9-23.41 61.37-24.55 61.37-25.9L61.37-25.9Q61.37-29.05 59.47-30.53 57.57-32 53.57-32L53.57-32 47-32Z" opacity="1" transform="matrix(1,0,0,1,0,0)" fill="#000000" class="wordmark-text-0" data-fill-palette-color="primary" id="text-0"></path></svg></g></svg></g></svg></g></svg></g></svg></g></svg></g></svg></g><path d="M144.77 48.157L144.77 3.662 384.645 3.662 384.645 243.538 144.77 243.538 144.77 199.043 157.295 199.043 157.295 231.013 372.12 231.013 372.12 16.187 157.295 16.187 157.295 48.157Z" fill="#000000" stroke="transparent" data-fill-palette-color="primary"></path></svg></g><defs></defs></svg><rect width="395.52" height="247.2" fill="none" stroke="none" visibility="hidden"></rect></g></svg></g></svg>